<mxfile host="65bd71144e">
    <diagram id="H3Ucq71ukI04CRPk0EPd" name="第 1 页">
        <mxGraphModel dx="1002" dy="576" grid="0" gridSize="10" guides="1" tooltips="1" connect="1" arrows="1" fold="1" page="0" pageScale="1" pageWidth="827" pageHeight="1169" math="0" shadow="0">
            <root>
                <mxCell id="0"/>
                <mxCell id="1" parent="0"/>
                <mxCell id="2" value="&lt;font color=&quot;#ff9933&quot; style=&quot;font-size: 18px;&quot;&gt;Terminate&lt;/font&gt;" style="text;html=1;align=center;verticalAlign=middle;resizable=0;points=[];autosize=1;strokeColor=none;fillColor=none;" vertex="1" parent="1">
                    <mxGeometry x="190" y="245" width="97" height="34" as="geometry"/>
                </mxCell>
                <mxCell id="3" value="" style="shape=curlyBracket;whiteSpace=wrap;html=1;rounded=1;labelPosition=left;verticalLabelPosition=middle;align=right;verticalAlign=middle;fontSize=18;fontColor=#FF9933;" vertex="1" parent="1">
                    <mxGeometry x="287" y="202" width="20" height="120" as="geometry"/>
                </mxCell>
                <mxCell id="4" value="eixt()" style="text;html=1;align=center;verticalAlign=middle;resizable=0;points=[];autosize=1;strokeColor=none;fillColor=none;fontSize=18;fontColor=#FF9933;" vertex="1" parent="1">
                    <mxGeometry x="317" y="186" width="58" height="34" as="geometry"/>
                </mxCell>
                <mxCell id="5" value="by it's parent(only)" style="text;html=1;align=center;verticalAlign=middle;resizable=0;points=[];autosize=1;strokeColor=none;fillColor=none;fontSize=18;fontColor=#FF9933;" vertex="1" parent="1">
                    <mxGeometry x="313" y="304" width="165" height="34" as="geometry"/>
                </mxCell>
                <mxCell id="6" value="" style="endArrow=classic;html=1;fontSize=18;fontColor=#FF9933;" edge="1" parent="1">
                    <mxGeometry width="50" height="50" relative="1" as="geometry">
                        <mxPoint x="398" y="261.5" as="sourcePoint"/>
                        <mxPoint x="576" y="261.5" as="targetPoint"/>
                    </mxGeometry>
                </mxCell>
                <mxCell id="7" value="state" style="text;html=1;align=center;verticalAlign=middle;resizable=0;points=[];autosize=1;strokeColor=none;fillColor=none;fontSize=18;fontColor=#FF9933;" vertex="1" parent="1">
                    <mxGeometry x="454" y="218" width="57" height="34" as="geometry"/>
                </mxCell>
                <mxCell id="8" value="parent( wait() )" style="text;html=1;align=center;verticalAlign=middle;resizable=0;points=[];autosize=1;strokeColor=none;fillColor=none;fontSize=18;fontColor=#FF9933;" vertex="1" parent="1">
                    <mxGeometry x="587" y="240" width="135" height="34" as="geometry"/>
                </mxCell>
                <mxCell id="11" value="" style="endArrow=classic;html=1;fontSize=18;fontColor=#FF9933;" edge="1" parent="1">
                    <mxGeometry width="50" height="50" relative="1" as="geometry">
                        <mxPoint x="505" y="264" as="sourcePoint"/>
                        <mxPoint x="607" y="398" as="targetPoint"/>
                    </mxGeometry>
                </mxCell>
                <mxCell id="12" value="resource" style="text;html=1;align=center;verticalAlign=middle;resizable=0;points=[];autosize=1;strokeColor=none;fillColor=none;fontSize=18;fontColor=#FF9933;" vertex="1" parent="1">
                    <mxGeometry x="566" y="316" width="88" height="34" as="geometry"/>
                </mxCell>
                <mxCell id="13" value="operating system" style="text;html=1;align=center;verticalAlign=middle;resizable=0;points=[];autosize=1;strokeColor=none;fillColor=none;fontSize=18;fontColor=#FF9933;" vertex="1" parent="1">
                    <mxGeometry x="547" y="393" width="155" height="34" as="geometry"/>
                </mxCell>
            </root>
        </mxGraphModel>
    </diagram>
</mxfile>